<svg width="56" height="56" viewBox="0 0 56 56" fill="none" xmlns="http://www.w3.org/2000/svg">
<g clip-path="url(#clip0_1694_17708)">
<path d="M56 28C56 43.4662 43.4689 56 28 56C12.5311 56 0 43.4662 0 28C0 12.5338 12.5311 0 28 0C43.4689 0 56 12.5338 56 28Z" fill="#FE6A2B"/>
<path d="M46.6667 28C46.6667 38.3108 38.3086 46.6647 28 46.6647C17.6913 46.6647 9.33331 38.3108 9.33331 28C9.33331 17.6892 17.6913 9.32939 28 9.32939C38.3086 9.32939 46.6667 17.6892 46.6667 28Z" fill="#231F20"/>
<path d="M39.1953 18.6647H28H16.7988V25.3868H23.8919V41.0659H28H32.1022V25.3868H39.1953V18.6647Z" fill="white"/>
</g>
<defs>
<clipPath id="clip0_1694_17708">
<rect width="56" height="56" fill="white"/>
</clipPath>
</defs>
</svg>
